<?xml version="1.0" encoding="UTF-8" standalone="no"?>
<!-- Created with Inkscape (http://www.inkscape.org/) -->

<svg
   xmlns:dc="http://purl.org/dc/elements/1.1/"
   xmlns:cc="http://creativecommons.org/ns#"
   xmlns:rdf="http://www.w3.org/1999/02/22-rdf-syntax-ns#"
   xmlns:svg="http://www.w3.org/2000/svg"
   xmlns="http://www.w3.org/2000/svg"
   xmlns:sodipodi="http://sodipodi.sourceforge.net/DTD/sodipodi-0.dtd"
   xmlns:inkscape="http://www.inkscape.org/namespaces/inkscape"
   width="48pt"
   height="48pt"
   viewBox="0 0 16.933334 16.933333"
   version="1.1"
   id="svg979"
   inkscape:version="0.92.4 (5da689c313, 2019-01-14)"
   sodipodi:docname="20 - Pouch Make Up.svg"
   inkscape:export-filename="E:\TR Design Studio Creative\Project Design\TR Creative Design\Icon Design\Project Hiring\Icon Icons\Project - 001\002 - Beauty And Fashion\Send\3 - Flat\20 - Pouch Make Up.png"
   inkscape:export-xdpi="768"
   inkscape:export-ydpi="768">
  <defs
     id="defs973" />
  <sodipodi:namedview
     id="base"
     pagecolor="#ffffff"
     bordercolor="#666666"
     borderopacity="1.0"
     inkscape:pageopacity="0.0"
     inkscape:pageshadow="2"
     inkscape:zoom="8.546875"
     inkscape:cx="32"
     inkscape:cy="32"
     inkscape:document-units="pt"
     inkscape:current-layer="layer1"
     showgrid="false"
     units="pt"
     inkscape:window-width="1366"
     inkscape:window-height="716"
     inkscape:window-x="-8"
     inkscape:window-y="-8"
     inkscape:window-maximized="1"
     inkscape:snap-bbox="true"
     inkscape:bbox-nodes="true"
     inkscape:snap-nodes="false"
     showguides="false">
    <inkscape:grid
       type="xygrid"
       id="grid1526" />
    <sodipodi:guide
       position="0.97013909,15.963209"
       orientation="56.666615,0"
       id="guide1528"
       inkscape:locked="false" />
    <sodipodi:guide
       position="0.97013909,0.97016731"
       orientation="0,56.666667"
       id="guide1530"
       inkscape:locked="false" />
    <sodipodi:guide
       position="15.963195,0.97016731"
       orientation="-56.666615,0"
       id="guide1532"
       inkscape:locked="false" />
    <sodipodi:guide
       position="15.963195,15.963209"
       orientation="0,-56.666667"
       id="guide1534"
       inkscape:locked="false" />
  </sodipodi:namedview>
  <metadata
     id="metadata976">
    <rdf:RDF>
      <cc:Work
         rdf:about="">
        <dc:format>image/svg+xml</dc:format>
        <dc:type
           rdf:resource="http://purl.org/dc/dcmitype/StillImage" />
        <dc:title></dc:title>
      </cc:Work>
    </rdf:RDF>
  </metadata>
  <g
     inkscape:label="Layer 1"
     inkscape:groupmode="layer"
     id="layer1"
     transform="translate(0,-280.06668)">
    <g
       transform="matrix(1.2186636,0,0,1.2186636,27.54292,-119.32273)"
       style="display:inline;stroke-width:0.82057095"
       id="g2620">
      <path
         inkscape:connector-curvature="0"
         id="path2368"
         d="m -15.398438,331.30078 a 0.26460978,0.26460978 0 0 0 -0.265624,0.26563 v 1.32226 a 0.26460978,0.26460978 0 0 0 0.146484,0.23633 l 0.11914,0.0605 v 0.76172 a 0.26460978,0.26460978 0 0 0 0.263672,0.26367 v 0.79492 a 0.26460978,0.26460978 0 0 0 0.265625,0.26367 h 1.058594 a 0.26460978,0.26460978 0 0 0 0.263672,-0.26367 v -3.43945 a 0.26460978,0.26460978 0 0 0 -0.263672,-0.26563 z"
         style="color:#000000;font-style:normal;font-variant:normal;font-weight:normal;font-stretch:normal;font-size:medium;line-height:normal;font-family:sans-serif;font-variant-ligatures:normal;font-variant-position:normal;font-variant-caps:normal;font-variant-numeric:normal;font-variant-alternates:normal;font-feature-settings:normal;text-indent:0;text-align:start;text-decoration:none;text-decoration-line:none;text-decoration-style:solid;text-decoration-color:#000000;letter-spacing:normal;word-spacing:normal;text-transform:none;writing-mode:lr-tb;direction:ltr;text-orientation:mixed;dominant-baseline:auto;baseline-shift:baseline;text-anchor:start;white-space:normal;shape-padding:0;clip-rule:nonzero;display:inline;overflow:visible;visibility:visible;opacity:1;isolation:auto;mix-blend-mode:normal;color-interpolation:sRGB;color-interpolation-filters:linearRGB;solid-color:#000000;solid-opacity:1;vector-effect:none;fill:#546e7a;fill-opacity:1;fill-rule:nonzero;stroke:none;stroke-width:0.43421879;stroke-linecap:round;stroke-linejoin:round;stroke-miterlimit:1.5;stroke-dasharray:none;stroke-dashoffset:0;stroke-opacity:1;paint-order:markers fill stroke;color-rendering:auto;image-rendering:auto;shape-rendering:auto;text-rendering:auto;enable-background:accumulate" />
      <path
         inkscape:connector-curvature="0"
         id="path2434"
         d="m -15.398564,331.30073 a 0.26460979,0.26460979 0 0 0 -0.265617,0.26562 v 0.79271 h 1.324467 a 0.26460979,0.26460979 0 0 1 0.26355,0.26562 v 2.6448 h 0.265617 a 0.26460979,0.26460979 0 0 0 0.26355,-0.26355 v -3.43958 a 0.26460979,0.26460979 0 0 0 -0.26355,-0.26562 z"
         style="color:#000000;font-style:normal;font-variant:normal;font-weight:normal;font-stretch:normal;font-size:medium;line-height:normal;font-family:sans-serif;font-variant-ligatures:normal;font-variant-position:normal;font-variant-caps:normal;font-variant-numeric:normal;font-variant-alternates:normal;font-feature-settings:normal;text-indent:0;text-align:start;text-decoration:none;text-decoration-line:none;text-decoration-style:solid;text-decoration-color:#000000;letter-spacing:normal;word-spacing:normal;text-transform:none;writing-mode:lr-tb;direction:ltr;text-orientation:mixed;dominant-baseline:auto;baseline-shift:baseline;text-anchor:start;white-space:normal;shape-padding:0;clip-rule:nonzero;display:inline;overflow:visible;visibility:visible;opacity:1;isolation:auto;mix-blend-mode:normal;color-interpolation:sRGB;color-interpolation-filters:linearRGB;solid-color:#000000;solid-opacity:1;vector-effect:none;fill:#304a56;fill-opacity:1;fill-rule:nonzero;stroke:none;stroke-width:0.43421879;stroke-linecap:round;stroke-linejoin:round;stroke-miterlimit:1.5;stroke-dasharray:none;stroke-dashoffset:0;stroke-opacity:1;paint-order:markers fill stroke;color-rendering:auto;image-rendering:auto;shape-rendering:auto;text-rendering:auto;enable-background:accumulate" />
      <path
         inkscape:connector-curvature="0"
         id="path1322"
         d="m -10.904297,333.94336 a 0.26460978,0.26460978 0 0 0 -0.261719,0.26758 v 0.79492 a 0.2646485,0.2646485 0 1 0 0.529297,0 v -0.79492 a 0.26460978,0.26460978 0 0 0 -0.267578,-0.26758 z"
         style="color:#000000;font-style:normal;font-variant:normal;font-weight:normal;font-stretch:normal;font-size:medium;line-height:normal;font-family:sans-serif;font-variant-ligatures:normal;font-variant-position:normal;font-variant-caps:normal;font-variant-numeric:normal;font-variant-alternates:normal;font-feature-settings:normal;text-indent:0;text-align:start;text-decoration:none;text-decoration-line:none;text-decoration-style:solid;text-decoration-color:#000000;letter-spacing:normal;word-spacing:normal;text-transform:none;writing-mode:lr-tb;direction:ltr;text-orientation:mixed;dominant-baseline:auto;baseline-shift:baseline;text-anchor:start;white-space:normal;shape-padding:0;clip-rule:nonzero;display:inline;overflow:visible;visibility:visible;opacity:1;isolation:auto;mix-blend-mode:normal;color-interpolation:sRGB;color-interpolation-filters:linearRGB;solid-color:#000000;solid-opacity:1;vector-effect:none;fill:#304a56;fill-opacity:1;fill-rule:nonzero;stroke:none;stroke-width:0.43421879;stroke-linecap:round;stroke-linejoin:round;stroke-miterlimit:1.5;stroke-dasharray:none;stroke-dashoffset:0;stroke-opacity:1;paint-order:markers fill stroke;color-rendering:auto;image-rendering:auto;shape-rendering:auto;text-rendering:auto;enable-background:accumulate" />
      <path
         inkscape:connector-curvature="0"
         id="path2406"
         d="m -11.429688,332.88867 a 0.26460978,0.26460978 0 0 0 -0.257812,0.32813 l 0.265625,1.05859 a 0.26460978,0.26460978 0 0 0 0.255859,0.20117 h 0.486328 a 0.26460978,0.26460978 0 0 0 0.169922,-0.0312 0.26460978,0.26460978 0 0 0 0.01563,-0.008 0.26460978,0.26460978 0 0 0 0.0078,-0.006 0.26460978,0.26460978 0 0 0 0.01367,-0.01 0.26460978,0.26460978 0 0 0 0.0078,-0.006 0.26460978,0.26460978 0 0 0 0.01172,-0.01 0.26460978,0.26460978 0 0 0 0.0078,-0.008 0.26460978,0.26460978 0 0 0 0.0098,-0.0117 0.26460978,0.26460978 0 0 0 0.0078,-0.008 0.26460978,0.26460978 0 0 0 0.0098,-0.0137 0.26460978,0.26460978 0 0 0 0.0059,-0.008 0.26460978,0.26460978 0 0 0 0.04297,-0.11914 0.26460978,0.26460978 0 0 0 0,-0.004 l 0.253907,-1.01758 a 0.26460978,0.26460978 0 0 0 -0.25586,-0.32813 z"
         style="color:#000000;font-style:normal;font-variant:normal;font-weight:normal;font-stretch:normal;font-size:medium;line-height:normal;font-family:sans-serif;font-variant-ligatures:normal;font-variant-position:normal;font-variant-caps:normal;font-variant-numeric:normal;font-variant-alternates:normal;font-feature-settings:normal;text-indent:0;text-align:start;text-decoration:none;text-decoration-line:none;text-decoration-style:solid;text-decoration-color:#000000;letter-spacing:normal;word-spacing:normal;text-transform:none;writing-mode:lr-tb;direction:ltr;text-orientation:mixed;dominant-baseline:auto;baseline-shift:baseline;text-anchor:start;white-space:normal;shape-padding:0;clip-rule:nonzero;display:inline;overflow:visible;visibility:visible;opacity:1;isolation:auto;mix-blend-mode:normal;color-interpolation:sRGB;color-interpolation-filters:linearRGB;solid-color:#000000;solid-opacity:1;vector-effect:none;fill:#ff4081;fill-opacity:1;fill-rule:nonzero;stroke:none;stroke-width:0.43421879;stroke-linecap:round;stroke-linejoin:round;stroke-miterlimit:1.5;stroke-dasharray:none;stroke-dashoffset:0;stroke-opacity:1;paint-order:markers fill stroke;color-rendering:auto;image-rendering:auto;shape-rendering:auto;text-rendering:auto;enable-background:accumulate" />
      <path
         inkscape:connector-curvature="0"
         id="path2418"
         d="m -16.201172,332.22852 a 0.26460978,0.26460978 0 0 0 -0.255859,0.26367 v 1.45508 a 0.26460978,0.26460978 0 0 0 0.263672,0.26367 h 1.058593 a 0.26460978,0.26460978 0 0 0 0.265625,-0.26367 v -0.92579 a 0.26460978,0.26460978 0 0 0 -0.146484,-0.23632 l -1.058594,-0.5293 a 0.26460978,0.26460978 0 0 0 -0.126953,-0.0273 z"
         style="color:#000000;font-style:normal;font-variant:normal;font-weight:normal;font-stretch:normal;font-size:medium;line-height:normal;font-family:sans-serif;font-variant-ligatures:normal;font-variant-position:normal;font-variant-caps:normal;font-variant-numeric:normal;font-variant-alternates:normal;font-feature-settings:normal;text-indent:0;text-align:start;text-decoration:none;text-decoration-line:none;text-decoration-style:solid;text-decoration-color:#000000;letter-spacing:normal;word-spacing:normal;text-transform:none;writing-mode:lr-tb;direction:ltr;text-orientation:mixed;dominant-baseline:auto;baseline-shift:baseline;text-anchor:start;white-space:normal;shape-padding:0;clip-rule:nonzero;display:inline;overflow:visible;visibility:visible;opacity:1;isolation:auto;mix-blend-mode:normal;color-interpolation:sRGB;color-interpolation-filters:linearRGB;solid-color:#000000;solid-opacity:1;vector-effect:none;fill:#ff4081;fill-opacity:1;fill-rule:nonzero;stroke:none;stroke-width:0.43421879;stroke-linecap:round;stroke-linejoin:round;stroke-miterlimit:1.5;stroke-dasharray:none;stroke-dashoffset:0;stroke-opacity:1;paint-order:markers fill stroke;color-rendering:auto;image-rendering:auto;shape-rendering:auto;text-rendering:auto;enable-background:accumulate" />
      <path
         inkscape:connector-curvature="0"
         id="path2455"
         d="m -16.200843,332.22825 a 0.26460979,0.26460979 0 0 0 -0.255798,0.26406 v 0.36587 l 0.912089,0.4563 a 0.26460979,0.26460979 0 0 1 0.146244,0.23617 v 0.66042 h 0.26355 a 0.26460979,0.26460979 0 0 0 0.265617,-0.26406 v -0.92553 a 0.26460979,0.26460979 0 0 0 -0.146244,-0.23616 l -1.05885,-0.52968 a 0.26460979,0.26460979 0 0 0 -0.126608,-0.0274 z"
         style="color:#000000;font-style:normal;font-variant:normal;font-weight:normal;font-stretch:normal;font-size:medium;line-height:normal;font-family:sans-serif;font-variant-ligatures:normal;font-variant-position:normal;font-variant-caps:normal;font-variant-numeric:normal;font-variant-alternates:normal;font-feature-settings:normal;text-indent:0;text-align:start;text-decoration:none;text-decoration-line:none;text-decoration-style:solid;text-decoration-color:#000000;letter-spacing:normal;word-spacing:normal;text-transform:none;writing-mode:lr-tb;direction:ltr;text-orientation:mixed;dominant-baseline:auto;baseline-shift:baseline;text-anchor:start;white-space:normal;shape-padding:0;clip-rule:nonzero;display:inline;overflow:visible;visibility:visible;opacity:1;isolation:auto;mix-blend-mode:normal;color-interpolation:sRGB;color-interpolation-filters:linearRGB;solid-color:#000000;solid-opacity:1;vector-effect:none;fill:#e51d71;fill-opacity:1;fill-rule:nonzero;stroke:none;stroke-width:0.43421879;stroke-linecap:round;stroke-linejoin:round;stroke-miterlimit:1.5;stroke-dasharray:none;stroke-dashoffset:0;stroke-opacity:1;paint-order:markers fill stroke;color-rendering:auto;image-rendering:auto;shape-rendering:auto;text-rendering:auto;enable-background:accumulate" />
      <path
         inkscape:connector-curvature="0"
         id="path2424"
         d="m -16.457031,333.68164 a 0.26460978,0.26460978 0 0 0 -0.263672,0.26563 v 1.05859 a 0.26460978,0.26460978 0 0 0 0.263672,0.26367 h 1.58789 a 0.26460978,0.26460978 0 0 0 0.263672,-0.26367 v -1.05859 a 0.26460978,0.26460978 0 0 0 -0.263672,-0.26563 z"
         style="color:#000000;font-style:normal;font-variant:normal;font-weight:normal;font-stretch:normal;font-size:medium;line-height:normal;font-family:sans-serif;font-variant-ligatures:normal;font-variant-position:normal;font-variant-caps:normal;font-variant-numeric:normal;font-variant-alternates:normal;font-feature-settings:normal;text-indent:0;text-align:start;text-decoration:none;text-decoration-line:none;text-decoration-style:solid;text-decoration-color:#000000;letter-spacing:normal;word-spacing:normal;text-transform:none;writing-mode:lr-tb;direction:ltr;text-orientation:mixed;dominant-baseline:auto;baseline-shift:baseline;text-anchor:start;white-space:normal;shape-padding:0;clip-rule:nonzero;display:inline;overflow:visible;visibility:visible;opacity:1;isolation:auto;mix-blend-mode:normal;color-interpolation:sRGB;color-interpolation-filters:linearRGB;solid-color:#000000;solid-opacity:1;vector-effect:none;fill:#f2f2f2;fill-opacity:1;fill-rule:nonzero;stroke:none;stroke-width:0.43421879;stroke-linecap:round;stroke-linejoin:round;stroke-miterlimit:1.5;stroke-dasharray:none;stroke-dashoffset:0;stroke-opacity:1;paint-order:markers fill stroke;color-rendering:auto;image-rendering:auto;shape-rendering:auto;text-rendering:auto;enable-background:accumulate" />
      <path
         inkscape:connector-curvature="0"
         id="path2414"
         d="m -19.658203,331.56641 a 0.26460978,0.26460978 0 0 0 -0.238281,0.26367 v 1.05859 a 0.26460978,0.26460978 0 0 0 0.263672,0.26563 h 1.58789 a 0.26460978,0.26460978 0 0 0 0.265625,-0.26563 v -1.05859 a 0.26460978,0.26460978 0 0 0 -0.265625,-0.26367 h -1.58789 a 0.26460978,0.26460978 0 0 0 -0.02539,0 z"
         style="color:#000000;font-style:normal;font-variant:normal;font-weight:normal;font-stretch:normal;font-size:medium;line-height:normal;font-family:sans-serif;font-variant-ligatures:normal;font-variant-position:normal;font-variant-caps:normal;font-variant-numeric:normal;font-variant-alternates:normal;font-feature-settings:normal;text-indent:0;text-align:start;text-decoration:none;text-decoration-line:none;text-decoration-style:solid;text-decoration-color:#000000;letter-spacing:normal;word-spacing:normal;text-transform:none;writing-mode:lr-tb;direction:ltr;text-orientation:mixed;dominant-baseline:auto;baseline-shift:baseline;text-anchor:start;white-space:normal;shape-padding:0;clip-rule:nonzero;display:inline;overflow:visible;visibility:visible;opacity:1;isolation:auto;mix-blend-mode:normal;color-interpolation:sRGB;color-interpolation-filters:linearRGB;solid-color:#000000;solid-opacity:1;vector-effect:none;fill:#7cb342;fill-opacity:1;fill-rule:nonzero;stroke:none;stroke-width:0.43421879;stroke-linecap:round;stroke-linejoin:round;stroke-miterlimit:1.5;stroke-dasharray:none;stroke-dashoffset:0;stroke-opacity:1;paint-order:markers fill stroke;color-rendering:auto;image-rendering:auto;shape-rendering:auto;text-rendering:auto;enable-background:accumulate" />
      <path
         inkscape:connector-curvature="0"
         id="path2439"
         d="m -19.65826,331.56641 a 0.26460979,0.26460979 0 0 0 -0.238229,0.26355 v 0.26562 h 1.3224 a 0.26460979,0.26460979 0 0 1 0.265617,0.26355 v 0.7953 h 0.26355 a 0.26460979,0.26460979 0 0 0 0.265617,-0.26562 v -1.05885 a 0.26460979,0.26460979 0 0 0 -0.265617,-0.26355 h -1.588017 a 0.26460979,0.26460979 0 0 0 -0.02532,0 z"
         style="color:#000000;font-style:normal;font-variant:normal;font-weight:normal;font-stretch:normal;font-size:medium;line-height:normal;font-family:sans-serif;font-variant-ligatures:normal;font-variant-position:normal;font-variant-caps:normal;font-variant-numeric:normal;font-variant-alternates:normal;font-feature-settings:normal;text-indent:0;text-align:start;text-decoration:none;text-decoration-line:none;text-decoration-style:solid;text-decoration-color:#000000;letter-spacing:normal;word-spacing:normal;text-transform:none;writing-mode:lr-tb;direction:ltr;text-orientation:mixed;dominant-baseline:auto;baseline-shift:baseline;text-anchor:start;white-space:normal;shape-padding:0;clip-rule:nonzero;display:inline;overflow:visible;visibility:visible;opacity:1;isolation:auto;mix-blend-mode:normal;color-interpolation:sRGB;color-interpolation-filters:linearRGB;solid-color:#000000;solid-opacity:1;vector-effect:none;fill:#6a9838;fill-opacity:1;fill-rule:nonzero;stroke:none;stroke-width:0.43421879;stroke-linecap:round;stroke-linejoin:round;stroke-miterlimit:1.5;stroke-dasharray:none;stroke-dashoffset:0;stroke-opacity:1;paint-order:markers fill stroke;color-rendering:auto;image-rendering:auto;shape-rendering:auto;text-rendering:auto;enable-background:accumulate" />
      <path
         inkscape:connector-curvature="0"
         id="path2410"
         d="m -19.923828,332.625 a 0.26460978,0.26460978 0 0 0 -0.230469,0.19922 l -0.527344,2.11719 a 0.26460978,0.26460978 0 0 0 0.25586,0.32812 H -17.25 a 0.26460978,0.26460978 0 0 0 0.255859,-0.32812 l -0.529297,-2.11719 a 0.26460978,0.26460978 0 0 0 -0.255859,-0.19922 h -2.117187 a 0.26460978,0.26460978 0 0 0 -0.02734,0 z"
         style="color:#000000;font-style:normal;font-variant:normal;font-weight:normal;font-stretch:normal;font-size:medium;line-height:normal;font-family:sans-serif;font-variant-ligatures:normal;font-variant-position:normal;font-variant-caps:normal;font-variant-numeric:normal;font-variant-alternates:normal;font-feature-settings:normal;text-indent:0;text-align:start;text-decoration:none;text-decoration-line:none;text-decoration-style:solid;text-decoration-color:#000000;letter-spacing:normal;word-spacing:normal;text-transform:none;writing-mode:lr-tb;direction:ltr;text-orientation:mixed;dominant-baseline:auto;baseline-shift:baseline;text-anchor:start;white-space:normal;shape-padding:0;clip-rule:nonzero;display:inline;overflow:visible;visibility:visible;opacity:1;isolation:auto;mix-blend-mode:normal;color-interpolation:sRGB;color-interpolation-filters:linearRGB;solid-color:#000000;solid-opacity:1;vector-effect:none;fill:#f2f2f2;fill-opacity:1;fill-rule:nonzero;stroke:none;stroke-width:0.43421879;stroke-linecap:round;stroke-linejoin:round;stroke-miterlimit:1.5;stroke-dasharray:none;stroke-dashoffset:0;stroke-opacity:1;paint-order:markers fill stroke;color-rendering:auto;image-rendering:auto;shape-rendering:auto;text-rendering:auto;enable-background:accumulate" />
      <path
         inkscape:connector-curvature="0"
         id="path2352"
         d="m -14.605469,328.52344 c -0.500818,0 -1.002055,0.10217 -1.404297,0.33203 -0.402242,0.22985 -0.710937,0.62328 -0.710937,1.12305 0,0.73201 0.307566,1.21566 0.619141,1.48828 0.311574,0.27262 0.638671,0.35547 0.638671,0.35547 a 0.26460978,0.26460978 0 0 0 0.06445,0.008 h 1.587891 a 0.26460978,0.26460978 0 0 0 0.0625,-0.008 c 0,0 0.32905,-0.0829 0.640625,-0.35547 0.311575,-0.27262 0.619141,-0.75627 0.619141,-1.48828 0,-0.49977 -0.310649,-0.8932 -0.712891,-1.12305 -0.402242,-0.22986 -0.903478,-0.33203 -1.404297,-0.33203 z"
         style="color:#000000;font-style:normal;font-variant:normal;font-weight:normal;font-stretch:normal;font-size:medium;line-height:normal;font-family:sans-serif;font-variant-ligatures:normal;font-variant-position:normal;font-variant-caps:normal;font-variant-numeric:normal;font-variant-alternates:normal;font-feature-settings:normal;text-indent:0;text-align:start;text-decoration:none;text-decoration-line:none;text-decoration-style:solid;text-decoration-color:#000000;letter-spacing:normal;word-spacing:normal;text-transform:none;writing-mode:lr-tb;direction:ltr;text-orientation:mixed;dominant-baseline:auto;baseline-shift:baseline;text-anchor:start;white-space:normal;shape-padding:0;clip-rule:nonzero;display:inline;overflow:visible;visibility:visible;opacity:1;isolation:auto;mix-blend-mode:normal;color-interpolation:sRGB;color-interpolation-filters:linearRGB;solid-color:#000000;solid-opacity:1;vector-effect:none;fill:#ffd180;fill-opacity:1;fill-rule:nonzero;stroke:none;stroke-width:0.43421879;stroke-linecap:round;stroke-linejoin:round;stroke-miterlimit:1.5;stroke-dasharray:none;stroke-dashoffset:0;stroke-opacity:1;paint-order:markers fill stroke;color-rendering:auto;image-rendering:auto;shape-rendering:auto;text-rendering:auto;enable-background:accumulate" />
      <path
         inkscape:connector-curvature="0"
         id="path1341"
         d="m -19.367188,333.68164 a 0.26465,0.26465 0 1 0 0,0.5293 h 1.058594 a 0.26465,0.26465 0 1 0 0,-0.5293 z"
         style="color:#000000;font-style:normal;font-variant:normal;font-weight:normal;font-stretch:normal;font-size:medium;line-height:normal;font-family:sans-serif;font-variant-ligatures:normal;font-variant-position:normal;font-variant-caps:normal;font-variant-numeric:normal;font-variant-alternates:normal;font-feature-settings:normal;text-indent:0;text-align:start;text-decoration:none;text-decoration-line:none;text-decoration-style:solid;text-decoration-color:#000000;letter-spacing:normal;word-spacing:normal;text-transform:none;writing-mode:lr-tb;direction:ltr;text-orientation:mixed;dominant-baseline:auto;baseline-shift:baseline;text-anchor:start;white-space:normal;shape-padding:0;clip-rule:nonzero;display:inline;overflow:visible;visibility:visible;opacity:1;isolation:auto;mix-blend-mode:normal;color-interpolation:sRGB;color-interpolation-filters:linearRGB;solid-color:#000000;solid-opacity:1;vector-effect:none;fill:#546e7a;fill-opacity:1;fill-rule:nonzero;stroke:none;stroke-width:0.43421879;stroke-linecap:round;stroke-linejoin:round;stroke-miterlimit:1.5;stroke-dasharray:none;stroke-dashoffset:0;stroke-opacity:1;paint-order:markers fill stroke;color-rendering:auto;image-rendering:auto;shape-rendering:auto;text-rendering:auto;enable-background:accumulate" />
      <path
         transform="matrix(0.26458333,0,0,0.26458333,0,284.3)"
         sodipodi:nodetypes="cccccccccccccccc"
         inkscape:connector-curvature="0"
         id="path2444"
         d="m -75.298828,182.64453 c -0.0013,6.6e-4 -0.0026,0.001 -0.0039,0.002 -0.419936,0.042 -0.768461,0.34282 -0.871094,0.75196 l -0.308594,1.24804 h 6.968571 c 1.333359,0 1.741925,0.58451 2.021863,1.70491 l 1.261519,5.049 c 0.154681,0.62511 -0.313127,1.23135 -0.957031,1.24023 h 1.990234 c 0.647934,-0.003 1.122376,-0.61125 0.966797,-1.24023 -0.673291,-2.66828 -1.325312,-5.34067 -2.000007,-8.00195 -0.147045,-0.53563 -0.601857,-0.75224 -0.966978,-0.75224 h -1.980468 -6.021485 c -0.03315,-0.002 -0.06639,-0.003 -0.09961,-0.002 z"
         style="color:#000000;font-style:normal;font-variant:normal;font-weight:normal;font-stretch:normal;font-size:medium;line-height:normal;font-family:sans-serif;font-variant-ligatures:normal;font-variant-position:normal;font-variant-caps:normal;font-variant-numeric:normal;font-variant-alternates:normal;font-feature-settings:normal;text-indent:0;text-align:start;text-decoration:none;text-decoration-line:none;text-decoration-style:solid;text-decoration-color:#000000;letter-spacing:normal;word-spacing:normal;text-transform:none;writing-mode:lr-tb;direction:ltr;text-orientation:mixed;dominant-baseline:auto;baseline-shift:baseline;text-anchor:start;white-space:normal;shape-padding:0;clip-rule:nonzero;display:inline;overflow:visible;visibility:visible;opacity:1;isolation:auto;mix-blend-mode:normal;color-interpolation:sRGB;color-interpolation-filters:linearRGB;solid-color:#000000;solid-opacity:1;vector-effect:none;fill:#d8d8d8;fill-opacity:1;fill-rule:nonzero;stroke:none;stroke-width:1.64114177;stroke-linecap:round;stroke-linejoin:round;stroke-miterlimit:1.5;stroke-dasharray:none;stroke-dashoffset:0;stroke-opacity:1;paint-order:markers fill stroke;color-rendering:auto;image-rendering:auto;shape-rendering:auto;text-rendering:auto;enable-background:accumulate" />
      <path
         inkscape:connector-curvature="0"
         id="path2465"
         d="m -16.456641,333.68148 a 0.26460979,0.26460979 0 0 0 -0.264067,0.26562 v 0.26355 h 1.3224 a 0.26460979,0.26460979 0 0 1 0.264067,0.26562 v 0.79323 h 0.2651 a 0.26460979,0.26460979 0 0 0 0.264066,-0.26355 v -1.05885 a 0.26460979,0.26460979 0 0 0 -0.264066,-0.26562 z"
         style="color:#000000;font-style:normal;font-variant:normal;font-weight:normal;font-stretch:normal;font-size:medium;line-height:normal;font-family:sans-serif;font-variant-ligatures:normal;font-variant-position:normal;font-variant-caps:normal;font-variant-numeric:normal;font-variant-alternates:normal;font-feature-settings:normal;text-indent:0;text-align:start;text-decoration:none;text-decoration-line:none;text-decoration-style:solid;text-decoration-color:#000000;letter-spacing:normal;word-spacing:normal;text-transform:none;writing-mode:lr-tb;direction:ltr;text-orientation:mixed;dominant-baseline:auto;baseline-shift:baseline;text-anchor:start;white-space:normal;shape-padding:0;clip-rule:nonzero;display:inline;overflow:visible;visibility:visible;opacity:1;isolation:auto;mix-blend-mode:normal;color-interpolation:sRGB;color-interpolation-filters:linearRGB;solid-color:#000000;solid-opacity:1;vector-effect:none;fill:#d8d8d8;fill-opacity:1;fill-rule:nonzero;stroke:none;stroke-width:0.43421879;stroke-linecap:round;stroke-linejoin:round;stroke-miterlimit:1.5;stroke-dasharray:none;stroke-dashoffset:0;stroke-opacity:1;paint-order:markers fill stroke;color-rendering:auto;image-rendering:auto;shape-rendering:auto;text-rendering:auto;enable-background:accumulate" />
      <path
         inkscape:connector-curvature="0"
         id="path2374"
         d="m -20.441406,334.74023 c -0.292596,-10e-6 -0.541337,0.0582 -0.732422,0.19532 -0.191085,0.13712 -0.302157,0.36275 -0.310547,0.58984 l -0.263672,4.49219 a 0.26460978,0.26460978 0 0 0 0,0.0156 c 3e-6,0.22049 0.101393,0.40999 0.242188,0.55078 0.140794,0.1408 0.330296,0.24219 0.550781,0.24219 h 10.583984 c 0.220485,0 0.4099874,-0.10139 0.5507815,-0.24219 0.1407941,-0.14079 0.2421875,-0.33029 0.2421875,-0.55078 a 0.26460978,0.26460978 0 0 0 0,-0.0156 l -0.265625,-4.49024 c -0.00561,-0.21562 -0.1176576,-0.4273 -0.304688,-0.56836 -0.187797,-0.14163 -0.443269,-0.21875 -0.751953,-0.21875 z"
         style="color:#000000;font-style:normal;font-variant:normal;font-weight:normal;font-stretch:normal;font-size:medium;line-height:normal;font-family:sans-serif;font-variant-ligatures:normal;font-variant-position:normal;font-variant-caps:normal;font-variant-numeric:normal;font-variant-alternates:normal;font-feature-settings:normal;text-indent:0;text-align:start;text-decoration:none;text-decoration-line:none;text-decoration-style:solid;text-decoration-color:#000000;letter-spacing:normal;word-spacing:normal;text-transform:none;writing-mode:lr-tb;direction:ltr;text-orientation:mixed;dominant-baseline:auto;baseline-shift:baseline;text-anchor:start;white-space:normal;shape-padding:0;clip-rule:nonzero;display:inline;overflow:visible;visibility:visible;opacity:1;isolation:auto;mix-blend-mode:normal;color-interpolation:sRGB;color-interpolation-filters:linearRGB;solid-color:#000000;solid-opacity:1;vector-effect:none;fill:#ff4081;fill-opacity:1;fill-rule:nonzero;stroke:none;stroke-width:0.43421879;stroke-linecap:round;stroke-linejoin:round;stroke-miterlimit:1.5;stroke-dasharray:none;stroke-dashoffset:0;stroke-opacity:1;paint-order:markers fill stroke;color-rendering:auto;image-rendering:auto;shape-rendering:auto;text-rendering:auto;enable-background:accumulate" />
      <path
         transform="matrix(0.26458333,0,0,0.26458333,0,284.3)"
         inkscape:connector-curvature="0"
         id="path2402"
         d="m -74.203125,194.64062 c -0.833499,0 -1.549689,0.39168 -2.082031,0.92383 -0.532339,0.53216 -0.847195,1.2533 -0.914063,2.08203 -0.3446,5.04557 -0.715853,10.66803 -1.070312,15.9961 h 38.136719 l -1.066407,-16.00391 c -0.0023,-0.83017 -0.391316,-1.54368 -0.921875,-2.07422 -0.532135,-0.53212 -1.248706,-0.92383 -2.082031,-0.92383 z"
         style="color:#000000;font-style:normal;font-variant:normal;font-weight:normal;font-stretch:normal;font-size:medium;line-height:normal;font-family:sans-serif;font-variant-ligatures:normal;font-variant-position:normal;font-variant-caps:normal;font-variant-numeric:normal;font-variant-alternates:normal;font-feature-settings:normal;text-indent:0;text-align:start;text-decoration:none;text-decoration-line:none;text-decoration-style:solid;text-decoration-color:#000000;letter-spacing:normal;word-spacing:normal;text-transform:none;writing-mode:lr-tb;direction:ltr;text-orientation:mixed;dominant-baseline:auto;baseline-shift:baseline;text-anchor:start;white-space:normal;shape-padding:0;clip-rule:nonzero;display:inline;overflow:visible;visibility:visible;opacity:1;isolation:auto;mix-blend-mode:normal;color-interpolation:sRGB;color-interpolation-filters:linearRGB;solid-color:#000000;solid-opacity:1;vector-effect:none;fill:#f2f2f2;fill-opacity:1;fill-rule:nonzero;stroke:none;stroke-width:1.64114177;stroke-linecap:round;stroke-linejoin:round;stroke-miterlimit:1.5;stroke-dasharray:none;stroke-dashoffset:0;stroke-opacity:1;paint-order:markers fill stroke;color-rendering:auto;image-rendering:auto;shape-rendering:auto;text-rendering:auto;enable-background:accumulate" />
      <path
         inkscape:connector-curvature="0"
         id="path1307"
         d="m -13.021484,336.85352 a 0.26460978,0.26460978 0 0 0 -0.259766,0.26953 v 0.26367 a 0.2646485,0.2646485 0 1 0 0.529297,0 v -0.26367 a 0.26460978,0.26460978 0 0 0 -0.269531,-0.26953 z"
         style="color:#000000;font-style:normal;font-variant:normal;font-weight:normal;font-stretch:normal;font-size:medium;line-height:normal;font-family:sans-serif;font-variant-ligatures:normal;font-variant-position:normal;font-variant-caps:normal;font-variant-numeric:normal;font-variant-alternates:normal;font-feature-settings:normal;text-indent:0;text-align:start;text-decoration:none;text-decoration-line:none;text-decoration-style:solid;text-decoration-color:#000000;letter-spacing:normal;word-spacing:normal;text-transform:none;writing-mode:lr-tb;direction:ltr;text-orientation:mixed;dominant-baseline:auto;baseline-shift:baseline;text-anchor:start;white-space:normal;shape-padding:0;clip-rule:nonzero;display:inline;overflow:visible;visibility:visible;opacity:1;isolation:auto;mix-blend-mode:normal;color-interpolation:sRGB;color-interpolation-filters:linearRGB;solid-color:#000000;solid-opacity:1;vector-effect:none;fill:#304a56;fill-opacity:1;fill-rule:nonzero;stroke:none;stroke-width:0.43421879;stroke-linecap:round;stroke-linejoin:round;stroke-miterlimit:1.5;stroke-dasharray:none;stroke-dashoffset:0;stroke-opacity:1;paint-order:markers fill stroke;color-rendering:auto;image-rendering:auto;shape-rendering:auto;text-rendering:auto;enable-background:accumulate" />
      <path
         inkscape:connector-curvature="0"
         id="path1305"
         d="m -18.837891,336.85742 a 0.26465,0.26465 0 1 0 0,0.5293 h 6.34961 a 0.26465,0.26465 0 1 0 0,-0.5293 z"
         style="color:#000000;font-style:normal;font-variant:normal;font-weight:normal;font-stretch:normal;font-size:medium;line-height:normal;font-family:sans-serif;font-variant-ligatures:normal;font-variant-position:normal;font-variant-caps:normal;font-variant-numeric:normal;font-variant-alternates:normal;font-feature-settings:normal;text-indent:0;text-align:start;text-decoration:none;text-decoration-line:none;text-decoration-style:solid;text-decoration-color:#000000;letter-spacing:normal;word-spacing:normal;text-transform:none;writing-mode:lr-tb;direction:ltr;text-orientation:mixed;dominant-baseline:auto;baseline-shift:baseline;text-anchor:start;white-space:normal;shape-padding:0;clip-rule:nonzero;display:inline;overflow:visible;visibility:visible;opacity:1;isolation:auto;mix-blend-mode:normal;color-interpolation:sRGB;color-interpolation-filters:linearRGB;solid-color:#000000;solid-opacity:1;vector-effect:none;fill:#546e7a;fill-opacity:1;fill-rule:nonzero;stroke:none;stroke-width:0.43421879;stroke-linecap:round;stroke-linejoin:round;stroke-miterlimit:1.5;stroke-dasharray:none;stroke-dashoffset:0;stroke-opacity:1;paint-order:markers fill stroke;color-rendering:auto;image-rendering:auto;shape-rendering:auto;text-rendering:auto;enable-background:accumulate" />
      <path
         sodipodi:nodetypes="ccccccccccc"
         inkscape:connector-curvature="0"
         id="path2398"
         d="m -16.123003,337.69156 c -0.362223,-4e-4 -0.654255,0.23042 -0.771484,0.51953 -0.117229,0.2891 -0.06685,0.65816 0.193359,0.91015 l 0.449219,0.44922 c 0.322514,0.32252 0.853267,0.32252 1.175781,0 l 0.455078,-0.45312 c 0.180632,-0.18032 0.264422,-0.41399 0.251953,-0.62891 -0.01247,-0.21492 -0.11012,-0.40504 -0.251953,-0.54687 -0.173882,-0.1576 -0.366114,-0.25211 -0.546919,-0.25211 -0.195171,0 -0.487216,0.26095 -0.487216,0.26095 0,0 -0.258956,-0.2587 -0.467818,-0.25884 z"
         style="color:#000000;font-style:normal;font-variant:normal;font-weight:normal;font-stretch:normal;font-size:medium;line-height:normal;font-family:sans-serif;font-variant-ligatures:normal;font-variant-position:normal;font-variant-caps:normal;font-variant-numeric:normal;font-variant-alternates:normal;font-feature-settings:normal;text-indent:0;text-align:start;text-decoration:none;text-decoration-line:none;text-decoration-style:solid;text-decoration-color:#000000;letter-spacing:normal;word-spacing:normal;text-transform:none;writing-mode:lr-tb;direction:ltr;text-orientation:mixed;dominant-baseline:auto;baseline-shift:baseline;text-anchor:start;white-space:normal;shape-padding:0;clip-rule:nonzero;display:inline;overflow:visible;visibility:visible;opacity:1;isolation:auto;mix-blend-mode:normal;color-interpolation:sRGB;color-interpolation-filters:linearRGB;solid-color:#000000;solid-opacity:1;vector-effect:none;fill:#ff4081;fill-opacity:1;fill-rule:nonzero;stroke:none;stroke-width:0.43421882;stroke-linecap:round;stroke-linejoin:round;stroke-miterlimit:1.5;stroke-dasharray:none;stroke-dashoffset:0;stroke-opacity:1;paint-order:markers fill stroke;color-rendering:auto;image-rendering:auto;shape-rendering:auto;text-rendering:auto;enable-background:accumulate" />
      <path
         inkscape:connector-curvature="0"
         id="path2426"
         d="m -14.605223,328.52366 c -0.500818,0 -1.002323,0.1019 -1.404565,0.33176 -0.230246,0.13157 -0.427444,0.31819 -0.556038,0.54622 0.0091,-0.005 0.01764,-0.0118 0.02687,-0.017 0.402242,-0.22986 0.903748,-0.33176 1.404566,-0.33176 0.500819,0 1.001806,0.1019 1.404048,0.33176 0.402242,0.22985 0.713135,0.62316 0.713135,1.12293 0,0.47306 -0.129399,0.84104 -0.304374,1.11673 0.06968,-0.0441 0.142358,-0.0945 0.214457,-0.15762 0.311575,-0.27262 0.619084,-0.75627 0.619084,-1.48828 0,-0.49977 -0.310893,-0.89308 -0.713135,-1.12293 -0.402242,-0.22986 -0.90323,-0.33176 -1.404049,-0.33176 z"
         style="color:#000000;font-style:normal;font-variant:normal;font-weight:normal;font-stretch:normal;font-size:medium;line-height:normal;font-family:sans-serif;font-variant-ligatures:normal;font-variant-position:normal;font-variant-caps:normal;font-variant-numeric:normal;font-variant-alternates:normal;font-feature-settings:normal;text-indent:0;text-align:start;text-decoration:none;text-decoration-line:none;text-decoration-style:solid;text-decoration-color:#000000;letter-spacing:normal;word-spacing:normal;text-transform:none;writing-mode:lr-tb;direction:ltr;text-orientation:mixed;dominant-baseline:auto;baseline-shift:baseline;text-anchor:start;white-space:normal;shape-padding:0;clip-rule:nonzero;display:inline;overflow:visible;visibility:visible;opacity:1;isolation:auto;mix-blend-mode:normal;color-interpolation:sRGB;color-interpolation-filters:linearRGB;solid-color:#000000;solid-opacity:1;vector-effect:none;fill:#f8a364;fill-opacity:1;fill-rule:nonzero;stroke:none;stroke-width:0.43421879;stroke-linecap:round;stroke-linejoin:round;stroke-miterlimit:1.5;stroke-dasharray:none;stroke-dashoffset:0;stroke-opacity:1;paint-order:markers fill stroke;color-rendering:auto;image-rendering:auto;shape-rendering:auto;text-rendering:auto;enable-background:accumulate" />
      <path
         transform="matrix(0.26458333,0,0,0.26458333,0,284.3)"
         inkscape:connector-curvature="0"
         id="path1351"
         d="m -55.201172,167.14453 c -0.333991,0 -0.666021,0.0262 -0.998047,0.0508 v 3.43946 a 1.0009765,1.0009765 0 0 0 2.001953,0 v -3.43946 c -0.333946,-0.0249 -0.667958,-0.0508 -1.003906,-0.0508 z m -2.998047,0.36133 c -0.70553,0.17549 -1.380379,0.41416 -2,0.73242 v 3.40039 a 1.0002444,1.0002444 0 0 0 2,0 z m 6.001953,0.002 v 4.13086 a 1.0002463,1.0002463 0 0 0 2,0 v -3.39648 c -0.619224,-0.31883 -1.294689,-0.55837 -2,-0.73438 z"
         style="color:#000000;font-style:normal;font-variant:normal;font-weight:normal;font-stretch:normal;font-size:medium;line-height:normal;font-family:sans-serif;font-variant-ligatures:normal;font-variant-position:normal;font-variant-caps:normal;font-variant-numeric:normal;font-variant-alternates:normal;font-feature-settings:normal;text-indent:0;text-align:start;text-decoration:none;text-decoration-line:none;text-decoration-style:solid;text-decoration-color:#000000;letter-spacing:normal;word-spacing:normal;text-transform:none;writing-mode:lr-tb;direction:ltr;text-orientation:mixed;dominant-baseline:auto;baseline-shift:baseline;text-anchor:start;white-space:normal;shape-padding:0;clip-rule:nonzero;display:inline;overflow:visible;visibility:visible;opacity:1;isolation:auto;mix-blend-mode:normal;color-interpolation:sRGB;color-interpolation-filters:linearRGB;solid-color:#000000;solid-opacity:1;vector-effect:none;fill:#e88842;fill-opacity:1;fill-rule:nonzero;stroke:none;stroke-width:1.64114177;stroke-linecap:round;stroke-linejoin:round;stroke-miterlimit:1.5;stroke-dasharray:none;stroke-dashoffset:0;stroke-opacity:1;paint-order:markers fill stroke;color-rendering:auto;image-rendering:auto;shape-rendering:auto;text-rendering:auto;enable-background:accumulate" />
      <path
         inkscape:connector-curvature="0"
         id="path2460"
         d="m -10.371143,332.88721 -0.513663,5.3e-4 a 0.26460979,0.26460979 0 0 1 0.240295,0.32763 l -0.253731,1.01751 a 0.26460979,0.26460979 0 0 1 0,0.004 0.26460979,0.26460979 0 0 1 -0.04341,0.11886 0.26460979,0.26460979 0 0 1 -0.0057,0.008 0.26460979,0.26460979 0 0 1 -0.0098,0.0134 0.26460979,0.26460979 0 0 1 -0.0078,0.008 0.26460979,0.26460979 0 0 1 -0.0098,0.0114 0.26460979,0.26460979 0 0 1 -0.0078,0.008 0.26460979,0.26460979 0 0 1 -0.01188,0.01 0.26460979,0.26460979 0 0 1 -0.0078,0.006 0.26460979,0.26460979 0 0 1 -0.01344,0.01 0.26460979,0.26460979 0 0 1 -0.0078,0.006 0.26460979,0.26460979 0 0 1 -0.01602,0.008 0.26460979,0.26460979 0 0 1 -0.09043,0.0315 h 0.450102 a 0.26460979,0.26460979 0 0 0 0.169498,-0.0315 0.26460979,0.26460979 0 0 0 0.01602,-0.008 0.26460979,0.26460979 0 0 0 0.0078,-0.006 0.26460979,0.26460979 0 0 0 0.01344,-0.01 0.26460979,0.26460979 0 0 0 0.0078,-0.006 0.26460979,0.26460979 0 0 0 0.01188,-0.01 0.26460979,0.26460979 0 0 0 0.0078,-0.008 0.26460979,0.26460979 0 0 0 0.0098,-0.0114 0.26460979,0.26460979 0 0 0 0.0078,-0.008 0.26460979,0.26460979 0 0 0 0.0098,-0.0134 0.26460979,0.26460979 0 0 0 0.0057,-0.008 0.26460979,0.26460979 0 0 0 0.04341,-0.11886 0.26460979,0.26460979 0 0 0 0,-0.004 l 0.253732,-1.01751 a 0.26460979,0.26460979 0 0 0 -0.255799,-0.32814 z"
         style="color:#000000;font-style:normal;font-variant:normal;font-weight:normal;font-stretch:normal;font-size:medium;line-height:normal;font-family:sans-serif;font-variant-ligatures:normal;font-variant-position:normal;font-variant-caps:normal;font-variant-numeric:normal;font-variant-alternates:normal;font-feature-settings:normal;text-indent:0;text-align:start;text-decoration:none;text-decoration-line:none;text-decoration-style:solid;text-decoration-color:#000000;letter-spacing:normal;word-spacing:normal;text-transform:none;writing-mode:lr-tb;direction:ltr;text-orientation:mixed;dominant-baseline:auto;baseline-shift:baseline;text-anchor:start;white-space:normal;shape-padding:0;clip-rule:nonzero;display:inline;overflow:visible;visibility:visible;opacity:1;isolation:auto;mix-blend-mode:normal;color-interpolation:sRGB;color-interpolation-filters:linearRGB;solid-color:#000000;solid-opacity:1;vector-effect:none;fill:#e51d71;fill-opacity:1;fill-rule:nonzero;stroke:none;stroke-width:0.43421879;stroke-linecap:round;stroke-linejoin:round;stroke-miterlimit:1.5;stroke-dasharray:none;stroke-dashoffset:0;stroke-opacity:1;paint-order:markers fill stroke;color-rendering:auto;image-rendering:auto;shape-rendering:auto;text-rendering:auto;enable-background:accumulate" />
      <path
         inkscape:connector-curvature="0"
         id="path2470"
         d="m -20.422209,334.74033 c -0.292596,-10e-6 -0.54117,0.0582 -0.732255,0.19534 -0.139306,0.1 -0.234614,0.24741 -0.280087,0.40772 0.143326,-0.0486 0.303638,-0.0739 0.483175,-0.0739 h 9.54102 c 0.308684,0 0.564612,0.077 0.752409,0.21859 0.18703,0.14106 0.298764,0.35282 0.304374,0.56844 l 0.265617,4.49017 a 0.26460979,0.26460979 0 0 1 0,0.0155 c 0,0.0794 -0.01691,0.15324 -0.04031,0.22376 0.125358,-0.0416 0.2375238,-0.11195 0.3276287,-0.20206 0.1407941,-0.14079 0.2418456,-0.33038 0.2418456,-0.55087 a 0.26460979,0.26460979 0 0 0 0,-0.0155 l -0.2656168,-4.49017 c -0.00561,-0.21562 -0.1173438,-0.42738 -0.3043745,-0.56844 -0.187797,-0.14163 -0.443725,-0.21859 -0.752409,-0.21859 z"
         style="color:#000000;font-style:normal;font-variant:normal;font-weight:normal;font-stretch:normal;font-size:medium;line-height:normal;font-family:sans-serif;font-variant-ligatures:normal;font-variant-position:normal;font-variant-caps:normal;font-variant-numeric:normal;font-variant-alternates:normal;font-feature-settings:normal;text-indent:0;text-align:start;text-decoration:none;text-decoration-line:none;text-decoration-style:solid;text-decoration-color:#000000;letter-spacing:normal;word-spacing:normal;text-transform:none;writing-mode:lr-tb;direction:ltr;text-orientation:mixed;dominant-baseline:auto;baseline-shift:baseline;text-anchor:start;white-space:normal;shape-padding:0;clip-rule:nonzero;display:inline;overflow:visible;visibility:visible;opacity:1;isolation:auto;mix-blend-mode:normal;color-interpolation:sRGB;color-interpolation-filters:linearRGB;solid-color:#000000;solid-opacity:1;vector-effect:none;fill:#e51d71;fill-opacity:1;fill-rule:nonzero;stroke:none;stroke-width:0.43421879;stroke-linecap:round;stroke-linejoin:round;stroke-miterlimit:1.5;stroke-dasharray:none;stroke-dashoffset:0;stroke-opacity:1;paint-order:markers fill stroke;color-rendering:auto;image-rendering:auto;shape-rendering:auto;text-rendering:auto;enable-background:accumulate" />
      <path
         inkscape:connector-curvature="0"
         id="path2475"
         d="m -19.63291,335.79866 c -0.22053,0 -0.410022,0.10364 -0.550871,0.24443 -0.08883,0.0888 -0.151723,0.19929 -0.192753,0.32246 0.06789,-0.0219 0.138483,-0.0377 0.214457,-0.0377 h 7.9375 c 0.220484,0 0.410077,0.10364 0.550871,0.24443 0.140377,0.14038 0.243304,0.32915 0.243913,0.5488 l 0.247013,3.70521 h 0.564307 l -0.282154,-4.23437 c -6.08e-4,-0.21965 -0.103535,-0.40843 -0.243912,-0.54881 -0.140794,-0.14079 -0.330387,-0.24443 -0.550871,-0.24443 z"
         style="color:#000000;font-style:normal;font-variant:normal;font-weight:normal;font-stretch:normal;font-size:medium;line-height:normal;font-family:sans-serif;font-variant-ligatures:normal;font-variant-position:normal;font-variant-caps:normal;font-variant-numeric:normal;font-variant-alternates:normal;font-feature-settings:normal;text-indent:0;text-align:start;text-decoration:none;text-decoration-line:none;text-decoration-style:solid;text-decoration-color:#000000;letter-spacing:normal;word-spacing:normal;text-transform:none;writing-mode:lr-tb;direction:ltr;text-orientation:mixed;dominant-baseline:auto;baseline-shift:baseline;text-anchor:start;white-space:normal;shape-padding:0;clip-rule:nonzero;display:inline;overflow:visible;visibility:visible;opacity:1;isolation:auto;mix-blend-mode:normal;color-interpolation:sRGB;color-interpolation-filters:linearRGB;solid-color:#000000;solid-opacity:1;vector-effect:none;fill:#d8d8d8;fill-opacity:1;fill-rule:nonzero;stroke:none;stroke-width:0.43421879;stroke-linecap:round;stroke-linejoin:round;stroke-miterlimit:1.5;stroke-dasharray:none;stroke-dashoffset:0;stroke-opacity:1;paint-order:markers fill stroke;color-rendering:auto;image-rendering:auto;shape-rendering:auto;text-rendering:auto;enable-background:accumulate" />
      <path
         sodipodi:nodetypes="sccscccccccs"
         inkscape:connector-curvature="0"
         id="path2480"
         d="m -15.168015,337.68951 c -0.07055,0 -0.151427,0.0371 -0.228926,0.0806 0.08408,0.0426 0.167738,0.0997 0.247013,0.17157 0.141833,0.14183 0.239194,0.33181 0.251664,0.54673 0.01247,0.21492 -0.07103,0.44859 -0.251664,0.6289 l -0.45527,0.45321 c -0.09344,0.0934 -0.205225,0.15655 -0.323494,0.19585 0.290023,0.0965 0.623501,0.0333 0.852661,-0.19585 l 0.455269,-0.45321 c 0.180632,-0.18031 0.264134,-0.41398 0.251665,-0.6289 -0.01247,-0.21492 -0.109832,-0.4049 -0.251665,-0.54673 -0.173881,-0.1576 -0.366448,-0.25218 -0.547253,-0.25218 z"
         style="color:#000000;font-style:normal;font-variant:normal;font-weight:normal;font-stretch:normal;font-size:medium;line-height:normal;font-family:sans-serif;font-variant-ligatures:normal;font-variant-position:normal;font-variant-caps:normal;font-variant-numeric:normal;font-variant-alternates:normal;font-feature-settings:normal;text-indent:0;text-align:start;text-decoration:none;text-decoration-line:none;text-decoration-style:solid;text-decoration-color:#000000;letter-spacing:normal;word-spacing:normal;text-transform:none;writing-mode:lr-tb;direction:ltr;text-orientation:mixed;dominant-baseline:auto;baseline-shift:baseline;text-anchor:start;white-space:normal;shape-padding:0;clip-rule:nonzero;display:inline;overflow:visible;visibility:visible;opacity:1;isolation:auto;mix-blend-mode:normal;color-interpolation:sRGB;color-interpolation-filters:linearRGB;solid-color:#000000;solid-opacity:1;vector-effect:none;fill:#e51d71;fill-opacity:1;fill-rule:nonzero;stroke:none;stroke-width:0.43421882;stroke-linecap:round;stroke-linejoin:round;stroke-miterlimit:1.5;stroke-dasharray:none;stroke-dashoffset:0;stroke-opacity:1;paint-order:markers fill stroke;color-rendering:auto;image-rendering:auto;shape-rendering:auto;text-rendering:auto;enable-background:accumulate" />
    </g>
  </g>
</svg>
