<?xml version="1.0" encoding="UTF-8" standalone="no"?>
<!-- Created with Inkscape (http://www.inkscape.org/) -->

<svg
   xmlns:dc="http://purl.org/dc/elements/1.1/"
   xmlns:cc="http://creativecommons.org/ns#"
   xmlns:rdf="http://www.w3.org/1999/02/22-rdf-syntax-ns#"
   xmlns:svg="http://www.w3.org/2000/svg"
   xmlns="http://www.w3.org/2000/svg"
   xmlns:sodipodi="http://sodipodi.sourceforge.net/DTD/sodipodi-0.dtd"
   xmlns:inkscape="http://www.inkscape.org/namespaces/inkscape"
   width="48pt"
   height="48pt"
   viewBox="0 0 16.933334 16.933333"
   version="1.1"
   id="svg979"
   inkscape:version="0.92.4 (5da689c313, 2019-01-14)"
   sodipodi:docname="22 - Dressing Gown.svg"
   inkscape:export-filename="E:\TR Design Studio Creative\Project Design\TR Creative Design\Icon Design\Project Hiring\Icon Icons\Project - 001\002 - Beauty And Fashion\Send\3 - Flat\22 - Dressing Gown.png"
   inkscape:export-xdpi="768"
   inkscape:export-ydpi="768">
  <defs
     id="defs973" />
  <sodipodi:namedview
     id="base"
     pagecolor="#ffffff"
     bordercolor="#666666"
     borderopacity="1.0"
     inkscape:pageopacity="0.0"
     inkscape:pageshadow="2"
     inkscape:zoom="8.546875"
     inkscape:cx="32"
     inkscape:cy="32"
     inkscape:document-units="pt"
     inkscape:current-layer="layer1"
     showgrid="false"
     units="pt"
     inkscape:window-width="1366"
     inkscape:window-height="716"
     inkscape:window-x="-8"
     inkscape:window-y="-8"
     inkscape:window-maximized="1"
     inkscape:snap-bbox="true"
     inkscape:bbox-nodes="true"
     inkscape:snap-nodes="false"
     showguides="false">
    <inkscape:grid
       type="xygrid"
       id="grid1526" />
    <sodipodi:guide
       position="0.97013909,15.963209"
       orientation="56.666615,0"
       id="guide1528"
       inkscape:locked="false" />
    <sodipodi:guide
       position="0.97013909,0.97016731"
       orientation="0,56.666667"
       id="guide1530"
       inkscape:locked="false" />
    <sodipodi:guide
       position="15.963195,0.97016731"
       orientation="-56.666615,0"
       id="guide1532"
       inkscape:locked="false" />
    <sodipodi:guide
       position="15.963195,15.963209"
       orientation="0,-56.666667"
       id="guide1534"
       inkscape:locked="false" />
  </sodipodi:namedview>
  <metadata
     id="metadata976">
    <rdf:RDF>
      <cc:Work
         rdf:about="">
        <dc:format>image/svg+xml</dc:format>
        <dc:type
           rdf:resource="http://purl.org/dc/dcmitype/StillImage" />
        <dc:title></dc:title>
      </cc:Work>
    </rdf:RDF>
  </metadata>
  <g
     inkscape:label="Layer 1"
     inkscape:groupmode="layer"
     id="layer1"
     transform="translate(0,-280.06668)">
    <g
       transform="matrix(1.2319466,0,0,1.2319466,-26.475174,-123.77035)"
       style="display:inline;stroke-width:0.81172353"
       id="g1588">
      <path
         inkscape:connector-curvature="0"
         id="path1661"
         d="m 28.501953,329.62891 c -0.983122,-0.0339 -1.976299,0.0662 -2.779297,0.34179 -0.802998,0.27559 -1.453014,0.74957 -1.58789,1.48242 a 0.26460978,0.26460978 0 0 0 -0.0039,0.0488 v 4.76172 a 0.26460978,0.26460978 0 0 0 0.09766,0.20703 l 1.21289,0.97071 -0.251953,3.0332 a 0.26460978,0.26460978 0 0 0 0.263672,0.28711 h 5.820313 a 0.26460978,0.26460978 0 0 0 0.263671,-0.28711 l -0.251953,-3.0332 1.212891,-0.97071 a 0.26460978,0.26460978 0 0 0 0.09766,-0.20703 v -4.76172 a 0.26460978,0.26460978 0 0 0 0,-0.0137 c -0.01653,-0.3212 -0.190222,-0.60132 -0.4375,-0.82226 -0.247278,-0.22095 -0.572192,-0.39701 -0.949219,-0.54297 -0.754053,-0.29193 -1.723909,-0.46028 -2.707031,-0.49414 z"
         style="color:#000000;font-style:normal;font-variant:normal;font-weight:normal;font-stretch:normal;font-size:medium;line-height:normal;font-family:sans-serif;font-variant-ligatures:normal;font-variant-position:normal;font-variant-caps:normal;font-variant-numeric:normal;font-variant-alternates:normal;font-feature-settings:normal;text-indent:0;text-align:start;text-decoration:none;text-decoration-line:none;text-decoration-style:solid;text-decoration-color:#000000;letter-spacing:normal;word-spacing:normal;text-transform:none;writing-mode:lr-tb;direction:ltr;text-orientation:mixed;dominant-baseline:auto;baseline-shift:baseline;text-anchor:start;white-space:normal;shape-padding:0;clip-rule:nonzero;display:inline;overflow:visible;visibility:visible;opacity:1;isolation:auto;mix-blend-mode:normal;color-interpolation:sRGB;color-interpolation-filters:linearRGB;solid-color:#000000;solid-opacity:1;vector-effect:none;fill:#ff7ca8;fill-opacity:1;fill-rule:nonzero;stroke:none;stroke-width:0.429537;stroke-linecap:round;stroke-linejoin:round;stroke-miterlimit:1.5;stroke-dasharray:none;stroke-dashoffset:0;stroke-opacity:1;paint-order:markers fill stroke;color-rendering:auto;image-rendering:auto;shape-rendering:auto;text-rendering:auto;enable-background:accumulate" />
      <path
         inkscape:connector-curvature="0"
         id="path1663"
         d="m 27.972742,329.62908 c 0.983122,0.0339 1.952758,0.20209 2.706811,0.49402 0.377027,0.14596 0.702019,0.32217 0.949297,0.54312 0.247277,0.22093 0.421169,0.50097 0.4377,0.82217 a 0.26460979,0.26460979 0 0 1 0,0.0134 v 4.76199 a 0.26460979,0.26460979 0 0 1 -0.09767,0.2067 l -1.213361,0.971 0.252181,3.03289 a 0.26460979,0.26460979 0 0 1 -0.26355,0.28733 h 0.529167 a 0.26460979,0.26460979 0 0 0 0.263549,-0.28733 l -0.25218,-3.03289 1.213361,-0.971 a 0.26460979,0.26460979 0 0 0 0.09767,-0.2067 v -4.76199 a 0.26460979,0.26460979 0 0 0 0,-0.0134 c -0.01654,-0.3212 -0.190424,-0.60123 -0.437701,-0.82217 -0.247279,-0.22096 -0.572269,-0.39716 -0.949296,-0.54312 -0.754053,-0.29193 -1.723689,-0.46016 -2.706812,-0.49402 -0.176616,-0.006 -0.353061,-0.003 -0.529166,0 z"
         style="color:#000000;font-style:normal;font-variant:normal;font-weight:normal;font-stretch:normal;font-size:medium;line-height:normal;font-family:sans-serif;font-variant-ligatures:normal;font-variant-position:normal;font-variant-caps:normal;font-variant-numeric:normal;font-variant-alternates:normal;font-feature-settings:normal;text-indent:0;text-align:start;text-decoration:none;text-decoration-line:none;text-decoration-style:solid;text-decoration-color:#000000;letter-spacing:normal;word-spacing:normal;text-transform:none;writing-mode:lr-tb;direction:ltr;text-orientation:mixed;dominant-baseline:auto;baseline-shift:baseline;text-anchor:start;white-space:normal;shape-padding:0;clip-rule:nonzero;display:inline;overflow:visible;visibility:visible;opacity:1;isolation:auto;mix-blend-mode:normal;color-interpolation:sRGB;color-interpolation-filters:linearRGB;solid-color:#000000;solid-opacity:1;vector-effect:none;fill:#f55b8f;fill-opacity:1;fill-rule:nonzero;stroke:none;stroke-width:0.429537;stroke-linecap:round;stroke-linejoin:round;stroke-miterlimit:1.5;stroke-dasharray:none;stroke-dashoffset:0;stroke-opacity:1;paint-order:markers fill stroke;color-rendering:auto;image-rendering:auto;shape-rendering:auto;text-rendering:auto;enable-background:accumulate" />
      <path
         inkscape:connector-curvature="0"
         id="path1327"
         d="m 28.359375,333.08594 a 0.26460978,0.26460978 0 0 0 -0.259766,0.26758 v 1.85156 a 0.26460978,0.26460978 0 1 0 0.527344,0 v -1.85156 a 0.26460978,0.26460978 0 0 0 -0.267578,-0.26758 z"
         style="color:#000000;font-style:normal;font-variant:normal;font-weight:normal;font-stretch:normal;font-size:medium;line-height:normal;font-family:sans-serif;font-variant-ligatures:normal;font-variant-position:normal;font-variant-caps:normal;font-variant-numeric:normal;font-variant-alternates:normal;font-feature-settings:normal;text-indent:0;text-align:start;text-decoration:none;text-decoration-line:none;text-decoration-style:solid;text-decoration-color:#000000;letter-spacing:normal;word-spacing:normal;text-transform:none;writing-mode:lr-tb;direction:ltr;text-orientation:mixed;dominant-baseline:auto;baseline-shift:baseline;text-anchor:start;white-space:normal;shape-padding:0;clip-rule:nonzero;display:inline;overflow:visible;visibility:visible;opacity:1;isolation:auto;mix-blend-mode:normal;color-interpolation:sRGB;color-interpolation-filters:linearRGB;solid-color:#000000;solid-opacity:1;vector-effect:none;fill:#a10852;fill-opacity:1;fill-rule:nonzero;stroke:none;stroke-width:0.429537;stroke-linecap:round;stroke-linejoin:round;stroke-miterlimit:1.5;stroke-dasharray:none;stroke-dashoffset:0;stroke-opacity:1;paint-order:markers fill stroke;color-rendering:auto;image-rendering:auto;shape-rendering:auto;text-rendering:auto;enable-background:accumulate" />
      <path
         inkscape:connector-curvature="0"
         id="path1646"
         d="m 28.337891,336 a 0.26460978,0.26460978 0 0 0 -0.238282,0.26367 v 3.17578 a 0.26460978,0.26460978 0 0 0 0.263672,0.26367 h 1.058594 a 0.26460978,0.26460978 0 0 0 0.263672,-0.26367 v -3.17578 A 0.26460978,0.26460978 0 0 0 29.421875,336 h -1.058594 a 0.26460978,0.26460978 0 0 0 -0.02539,0 z"
         style="color:#000000;font-style:normal;font-variant:normal;font-weight:normal;font-stretch:normal;font-size:medium;line-height:normal;font-family:sans-serif;font-variant-ligatures:normal;font-variant-position:normal;font-variant-caps:normal;font-variant-numeric:normal;font-variant-alternates:normal;font-feature-settings:normal;text-indent:0;text-align:start;text-decoration:none;text-decoration-line:none;text-decoration-style:solid;text-decoration-color:#000000;letter-spacing:normal;word-spacing:normal;text-transform:none;writing-mode:lr-tb;direction:ltr;text-orientation:mixed;dominant-baseline:auto;baseline-shift:baseline;text-anchor:start;white-space:normal;shape-padding:0;clip-rule:nonzero;display:inline;overflow:visible;visibility:visible;opacity:1;isolation:auto;mix-blend-mode:normal;color-interpolation:sRGB;color-interpolation-filters:linearRGB;solid-color:#000000;solid-opacity:1;vector-effect:none;fill:#e92567;fill-opacity:1;fill-rule:nonzero;stroke:none;stroke-width:0.429537;stroke-linecap:round;stroke-linejoin:round;stroke-miterlimit:1.5;stroke-dasharray:none;stroke-dashoffset:0;stroke-opacity:1;paint-order:markers fill stroke;color-rendering:auto;image-rendering:auto;shape-rendering:auto;text-rendering:auto;enable-background:accumulate" />
      <path
         inkscape:connector-curvature="0"
         id="path1682"
         d="m 28.892829,336.0002 a 0.26460979,0.26460979 0 0 1 0.263551,0.26355 v 3.17552 a 0.26460979,0.26460979 0 0 1 -0.263551,0.26407 h 0.529167 a 0.26460979,0.26460979 0 0 0 0.263551,-0.26407 v -3.17552 a 0.26460979,0.26460979 0 0 0 -0.263551,-0.26355 z"
         style="color:#000000;font-style:normal;font-variant:normal;font-weight:normal;font-stretch:normal;font-size:medium;line-height:normal;font-family:sans-serif;font-variant-ligatures:normal;font-variant-position:normal;font-variant-caps:normal;font-variant-numeric:normal;font-variant-alternates:normal;font-feature-settings:normal;text-indent:0;text-align:start;text-decoration:none;text-decoration-line:none;text-decoration-style:solid;text-decoration-color:#000000;letter-spacing:normal;word-spacing:normal;text-transform:none;writing-mode:lr-tb;direction:ltr;text-orientation:mixed;dominant-baseline:auto;baseline-shift:baseline;text-anchor:start;white-space:normal;shape-padding:0;clip-rule:nonzero;display:inline;overflow:visible;visibility:visible;opacity:1;isolation:auto;mix-blend-mode:normal;color-interpolation:sRGB;color-interpolation-filters:linearRGB;solid-color:#000000;solid-opacity:1;vector-effect:none;fill:#a10852;fill-opacity:1;fill-rule:nonzero;stroke:none;stroke-width:0.429537;stroke-linecap:round;stroke-linejoin:round;stroke-miterlimit:1.5;stroke-dasharray:none;stroke-dashoffset:0;stroke-opacity:1;paint-order:markers fill stroke;color-rendering:auto;image-rendering:auto;shape-rendering:auto;text-rendering:auto;enable-background:accumulate" />
      <path
         inkscape:connector-curvature="0"
         id="path1640"
         d="m 25.982422,334.94141 a 0.26460978,0.26460978 0 0 0 -0.265625,0.26367 v 1.05859 a 0.26460978,0.26460978 0 0 0 0.265625,0.26563 h 4.761719 a 0.26460978,0.26460978 0 0 0 0.265625,-0.26563 v -1.05859 a 0.26460978,0.26460978 0 0 0 -0.265625,-0.26367 z"
         style="color:#000000;font-style:normal;font-variant:normal;font-weight:normal;font-stretch:normal;font-size:medium;line-height:normal;font-family:sans-serif;font-variant-ligatures:normal;font-variant-position:normal;font-variant-caps:normal;font-variant-numeric:normal;font-variant-alternates:normal;font-feature-settings:normal;text-indent:0;text-align:start;text-decoration:none;text-decoration-line:none;text-decoration-style:solid;text-decoration-color:#000000;letter-spacing:normal;word-spacing:normal;text-transform:none;writing-mode:lr-tb;direction:ltr;text-orientation:mixed;dominant-baseline:auto;baseline-shift:baseline;text-anchor:start;white-space:normal;shape-padding:0;clip-rule:nonzero;display:inline;overflow:visible;visibility:visible;opacity:1;isolation:auto;mix-blend-mode:normal;color-interpolation:sRGB;color-interpolation-filters:linearRGB;solid-color:#000000;solid-opacity:1;vector-effect:none;fill:#c21470;fill-opacity:1;fill-rule:nonzero;stroke:none;stroke-width:0.429537;stroke-linecap:round;stroke-linejoin:round;stroke-miterlimit:1.5;stroke-dasharray:none;stroke-dashoffset:0;stroke-opacity:1;paint-order:markers fill stroke;color-rendering:auto;image-rendering:auto;shape-rendering:auto;text-rendering:auto;enable-background:accumulate" />
      <path
         inkscape:connector-curvature="0"
         id="path1674"
         d="m 28.363281,328.5918 c 0,0 -0.252337,-1.6e-4 -0.542969,0.0352 -0.290631,0.0353 -0.62021,0.0616 -0.865234,0.30664 a 0.26460978,0.26460978 0 0 0 -0.05273,0.29688 l 1.220703,2.64648 a 0.26460978,0.26460978 0 0 0 0.480469,0 l 1.220703,-2.64648 a 0.26460978,0.26460978 0 0 0 -0.05273,-0.29688 c -0.245023,-0.24502 -0.574602,-0.27132 -0.865234,-0.30664 -0.290632,-0.0353 -0.542969,-0.0352 -0.542969,-0.0352 z"
         style="color:#000000;font-style:normal;font-variant:normal;font-weight:normal;font-stretch:normal;font-size:medium;line-height:normal;font-family:sans-serif;font-variant-ligatures:normal;font-variant-position:normal;font-variant-caps:normal;font-variant-numeric:normal;font-variant-alternates:normal;font-feature-settings:normal;text-indent:0;text-align:start;text-decoration:none;text-decoration-line:none;text-decoration-style:solid;text-decoration-color:#000000;letter-spacing:normal;word-spacing:normal;text-transform:none;writing-mode:lr-tb;direction:ltr;text-orientation:mixed;dominant-baseline:auto;baseline-shift:baseline;text-anchor:start;white-space:normal;shape-padding:0;clip-rule:nonzero;display:inline;overflow:visible;visibility:visible;opacity:1;isolation:auto;mix-blend-mode:normal;color-interpolation:sRGB;color-interpolation-filters:linearRGB;solid-color:#000000;solid-opacity:1;vector-effect:none;fill:#ff7ca8;fill-opacity:1;fill-rule:nonzero;stroke:none;stroke-width:0.429537;stroke-linecap:round;stroke-linejoin:round;stroke-miterlimit:1.5;stroke-dasharray:none;stroke-dashoffset:0;stroke-opacity:1;paint-order:markers fill stroke;color-rendering:auto;image-rendering:auto;shape-rendering:auto;text-rendering:auto;enable-background:accumulate" />
      <path
         inkscape:connector-curvature="0"
         id="path1676"
         d="m 28.36331,328.59205 c 0,0 -0.25197,-2.1e-4 -0.542602,0.0352 -0.290631,0.0353 -0.620556,0.0614 -0.86558,0.30644 a 0.26460979,0.26460979 0 0 0 -0.07545,0.2129 c 0.231508,-0.0214 0.425297,-0.0253 0.425297,-0.0253 0,0 0.252487,-1.5e-4 0.543119,0.0351 0.290632,0.0353 0.620041,0.0614 0.865064,0.30644 a 0.26460979,0.26460979 0 0 1 0.05271,0.29714 l -0.80977,1.75544 0.166915,0.36174 a 0.26460979,0.26460979 0 0 0 0.480591,0 l 1.220597,-2.64635 a 0.26460979,0.26460979 0 0 0 -0.05271,-0.29714 c -0.245023,-0.24502 -0.574431,-0.27112 -0.865063,-0.30644 -0.290632,-0.0353 -0.54312,-0.0351 -0.54312,-0.0351 z"
         style="color:#000000;font-style:normal;font-variant:normal;font-weight:normal;font-stretch:normal;font-size:medium;line-height:normal;font-family:sans-serif;font-variant-ligatures:normal;font-variant-position:normal;font-variant-caps:normal;font-variant-numeric:normal;font-variant-alternates:normal;font-feature-settings:normal;text-indent:0;text-align:start;text-decoration:none;text-decoration-line:none;text-decoration-style:solid;text-decoration-color:#000000;letter-spacing:normal;word-spacing:normal;text-transform:none;writing-mode:lr-tb;direction:ltr;text-orientation:mixed;dominant-baseline:auto;baseline-shift:baseline;text-anchor:start;white-space:normal;shape-padding:0;clip-rule:nonzero;display:inline;overflow:visible;visibility:visible;opacity:1;isolation:auto;mix-blend-mode:normal;color-interpolation:sRGB;color-interpolation-filters:linearRGB;solid-color:#000000;solid-opacity:1;vector-effect:none;fill:#f55b8f;fill-opacity:1;fill-rule:nonzero;stroke:none;stroke-width:0.429537;stroke-linecap:round;stroke-linejoin:round;stroke-miterlimit:1.5;stroke-dasharray:none;stroke-dashoffset:0;stroke-opacity:1;paint-order:markers fill stroke;color-rendering:auto;image-rendering:auto;shape-rendering:auto;text-rendering:auto;enable-background:accumulate" />
      <path
         inkscape:connector-curvature="0"
         id="path1599"
         d="m 29.660156,328.5918 a 0.26460978,0.26460978 0 0 0 -0.214844,0.15429 l -1.322265,2.91016 a 0.26460978,0.26460978 0 0 0 -0.02344,0.10937 v 1.85352 a 0.26460978,0.26460978 0 0 0 0.527344,0 c 0,-0.22489 0.164564,-0.59371 0.447266,-0.98242 0.282701,-0.38871 0.670587,-0.80207 1.060547,-1.17578 0.77992,-0.74742 1.5625,-1.33594 1.5625,-1.33594 a 0.26460978,0.26460978 0 0 0 0.07031,-0.34375 c -0.688588,-1.19268 -2.082031,-1.18945 -2.082031,-1.18945 a 0.26460978,0.26460978 0 0 0 -0.02539,0 z"
         style="color:#000000;font-style:normal;font-variant:normal;font-weight:normal;font-stretch:normal;font-size:medium;line-height:normal;font-family:sans-serif;font-variant-ligatures:normal;font-variant-position:normal;font-variant-caps:normal;font-variant-numeric:normal;font-variant-alternates:normal;font-feature-settings:normal;text-indent:0;text-align:start;text-decoration:none;text-decoration-line:none;text-decoration-style:solid;text-decoration-color:#000000;letter-spacing:normal;word-spacing:normal;text-transform:none;writing-mode:lr-tb;direction:ltr;text-orientation:mixed;dominant-baseline:auto;baseline-shift:baseline;text-anchor:start;white-space:normal;shape-padding:0;clip-rule:nonzero;display:inline;overflow:visible;visibility:visible;opacity:1;isolation:auto;mix-blend-mode:normal;color-interpolation:sRGB;color-interpolation-filters:linearRGB;solid-color:#000000;solid-opacity:1;vector-effect:none;fill:#e92567;fill-opacity:1;fill-rule:nonzero;stroke:none;stroke-width:0.429537;stroke-linecap:round;stroke-linejoin:round;stroke-miterlimit:1.5;stroke-dasharray:none;stroke-dashoffset:0;stroke-opacity:1;paint-order:markers fill stroke;color-rendering:auto;image-rendering:auto;shape-rendering:auto;text-rendering:auto;enable-background:accumulate" />
      <path
         inkscape:connector-curvature="0"
         id="path1687"
         d="m 25.98343,334.94141 a 0.26460979,0.26460979 0 0 0 -0.265616,0.26355 v 0.26562 h 3.969266 a 0.26460979,0.26460979 0 0 1 0.265615,0.26355 v 0.7953 h 0.792719 a 0.26460979,0.26460979 0 0 0 0.265615,-0.26562 v -1.05885 a 0.26460979,0.26460979 0 0 0 -0.265615,-0.26355 z"
         style="color:#000000;font-style:normal;font-variant:normal;font-weight:normal;font-stretch:normal;font-size:medium;line-height:normal;font-family:sans-serif;font-variant-ligatures:normal;font-variant-position:normal;font-variant-caps:normal;font-variant-numeric:normal;font-variant-alternates:normal;font-feature-settings:normal;text-indent:0;text-align:start;text-decoration:none;text-decoration-line:none;text-decoration-style:solid;text-decoration-color:#000000;letter-spacing:normal;word-spacing:normal;text-transform:none;writing-mode:lr-tb;direction:ltr;text-orientation:mixed;dominant-baseline:auto;baseline-shift:baseline;text-anchor:start;white-space:normal;shape-padding:0;clip-rule:nonzero;display:inline;overflow:visible;visibility:visible;opacity:1;isolation:auto;mix-blend-mode:normal;color-interpolation:sRGB;color-interpolation-filters:linearRGB;solid-color:#000000;solid-opacity:1;vector-effect:none;fill:#a10852;fill-opacity:1;fill-rule:nonzero;stroke:none;stroke-width:0.429537;stroke-linecap:round;stroke-linejoin:round;stroke-miterlimit:1.5;stroke-dasharray:none;stroke-dashoffset:0;stroke-opacity:1;paint-order:markers fill stroke;color-rendering:auto;image-rendering:auto;shape-rendering:auto;text-rendering:auto;enable-background:accumulate" />
      <path
         inkscape:connector-curvature="0"
         id="path1296"
         d="m 30.740234,332.82031 a 0.26460978,0.26460978 0 0 0 -0.259765,0.26953 v 3.17383 a 0.2646485,0.2646485 0 1 0 0.529297,0 v -3.17383 a 0.26460978,0.26460978 0 0 0 -0.269532,-0.26953 z"
         style="color:#000000;font-style:normal;font-variant:normal;font-weight:normal;font-stretch:normal;font-size:medium;line-height:normal;font-family:sans-serif;font-variant-ligatures:normal;font-variant-position:normal;font-variant-caps:normal;font-variant-numeric:normal;font-variant-alternates:normal;font-feature-settings:normal;text-indent:0;text-align:start;text-decoration:none;text-decoration-line:none;text-decoration-style:solid;text-decoration-color:#000000;letter-spacing:normal;word-spacing:normal;text-transform:none;writing-mode:lr-tb;direction:ltr;text-orientation:mixed;dominant-baseline:auto;baseline-shift:baseline;text-anchor:start;white-space:normal;shape-padding:0;clip-rule:nonzero;display:inline;overflow:visible;visibility:visible;opacity:1;isolation:auto;mix-blend-mode:normal;color-interpolation:sRGB;color-interpolation-filters:linearRGB;solid-color:#000000;solid-opacity:1;vector-effect:none;fill:#f55b8f;fill-opacity:1;fill-rule:nonzero;stroke:none;stroke-width:0.429537;stroke-linecap:round;stroke-linejoin:round;stroke-miterlimit:1.5;stroke-dasharray:none;stroke-dashoffset:0;stroke-opacity:1;paint-order:markers fill stroke;color-rendering:auto;image-rendering:auto;shape-rendering:auto;text-rendering:auto;enable-background:accumulate" />
      <path
         inkscape:connector-curvature="0"
         id="path1562"
         d="m 32.332031,336 c 0.288589,0 0.529297,0.24071 0.529297,0.5293 v 0.52929 c 0,0.28859 -0.240708,0.5293 -0.529297,0.5293 h -1.58789 c -0.288589,0 -0.529297,-0.24071 -0.529297,-0.5293 v -0.52929 c 0,-0.28859 0.240708,-0.5293 0.529297,-0.5293 z"
         style="color:#000000;font-style:normal;font-variant:normal;font-weight:normal;font-stretch:normal;font-size:medium;line-height:normal;font-family:sans-serif;font-variant-ligatures:normal;font-variant-position:normal;font-variant-caps:normal;font-variant-numeric:normal;font-variant-alternates:normal;font-feature-settings:normal;text-indent:0;text-align:start;text-decoration:none;text-decoration-line:none;text-decoration-style:solid;text-decoration-color:#000000;letter-spacing:normal;word-spacing:normal;text-transform:none;writing-mode:lr-tb;direction:ltr;text-orientation:mixed;dominant-baseline:auto;baseline-shift:baseline;text-anchor:start;white-space:normal;shape-padding:0;clip-rule:nonzero;display:inline;overflow:visible;visibility:visible;opacity:1;isolation:auto;mix-blend-mode:normal;color-interpolation:sRGB;color-interpolation-filters:linearRGB;solid-color:#000000;solid-opacity:1;vector-effect:none;fill:#e92567;fill-opacity:1;fill-rule:nonzero;stroke:none;stroke-width:0.429537;stroke-linecap:round;stroke-linejoin:round;stroke-miterlimit:1.5;stroke-dasharray:none;stroke-dashoffset:0;stroke-opacity:1;paint-order:markers fill stroke;color-rendering:auto;image-rendering:auto;shape-rendering:auto;text-rendering:auto;enable-background:accumulate" />
      <path
         inkscape:connector-curvature="0"
         id="path1583"
         d="m 27.041016,328.5918 c 0,0 -1.393443,-0.003 -2.082032,1.18945 a 0.26460978,0.26460978 0 0 0 0.07031,0.34375 c 0,0 0.78258,0.58852 1.5625,1.33594 0.38996,0.37371 0.777845,0.78707 1.060547,1.17578 0.282701,0.38871 0.447265,0.75753 0.447265,0.98242 a 0.26460978,0.26460978 0 0 0 0.527344,0 v -1.85352 a 0.26460978,0.26460978 0 0 0 -0.02344,-0.10937 l -1.322266,-2.91016 A 0.26460978,0.26460978 0 0 0 27.04101,328.5918 Z"
         style="color:#000000;font-style:normal;font-variant:normal;font-weight:normal;font-stretch:normal;font-size:medium;line-height:normal;font-family:sans-serif;font-variant-ligatures:normal;font-variant-position:normal;font-variant-caps:normal;font-variant-numeric:normal;font-variant-alternates:normal;font-feature-settings:normal;text-indent:0;text-align:start;text-decoration:none;text-decoration-line:none;text-decoration-style:solid;text-decoration-color:#000000;letter-spacing:normal;word-spacing:normal;text-transform:none;writing-mode:lr-tb;direction:ltr;text-orientation:mixed;dominant-baseline:auto;baseline-shift:baseline;text-anchor:start;white-space:normal;shape-padding:0;clip-rule:nonzero;display:inline;overflow:visible;visibility:visible;opacity:1;isolation:auto;mix-blend-mode:normal;color-interpolation:sRGB;color-interpolation-filters:linearRGB;solid-color:#000000;solid-opacity:1;vector-effect:none;fill:#e92567;fill-opacity:1;fill-rule:nonzero;stroke:none;stroke-width:0.429537;stroke-linecap:round;stroke-linejoin:round;stroke-miterlimit:1.5;stroke-dasharray:none;stroke-dashoffset:0;stroke-opacity:1;paint-order:markers fill stroke;color-rendering:auto;image-rendering:auto;shape-rendering:auto;text-rendering:auto;enable-background:accumulate" />
      <path
         inkscape:connector-curvature="0"
         id="path1319"
         d="m 25.978516,332.82031 a 0.26460978,0.26460978 0 0 0 -0.261719,0.26953 v 3.17383 a 0.2646485,0.2646485 0 1 0 0.529297,0 v -3.17383 a 0.26460978,0.26460978 0 0 0 -0.267578,-0.26953 z"
         style="color:#000000;font-style:normal;font-variant:normal;font-weight:normal;font-stretch:normal;font-size:medium;line-height:normal;font-family:sans-serif;font-variant-ligatures:normal;font-variant-position:normal;font-variant-caps:normal;font-variant-numeric:normal;font-variant-alternates:normal;font-feature-settings:normal;text-indent:0;text-align:start;text-decoration:none;text-decoration-line:none;text-decoration-style:solid;text-decoration-color:#000000;letter-spacing:normal;word-spacing:normal;text-transform:none;writing-mode:lr-tb;direction:ltr;text-orientation:mixed;dominant-baseline:auto;baseline-shift:baseline;text-anchor:start;white-space:normal;shape-padding:0;clip-rule:nonzero;display:inline;overflow:visible;visibility:visible;opacity:1;isolation:auto;mix-blend-mode:normal;color-interpolation:sRGB;color-interpolation-filters:linearRGB;solid-color:#000000;solid-opacity:1;vector-effect:none;fill:#f55b8f;fill-opacity:1;fill-rule:nonzero;stroke:none;stroke-width:0.429537;stroke-linecap:round;stroke-linejoin:round;stroke-miterlimit:1.5;stroke-dasharray:none;stroke-dashoffset:0;stroke-opacity:1;paint-order:markers fill stroke;color-rendering:auto;image-rendering:auto;shape-rendering:auto;text-rendering:auto;enable-background:accumulate" />
      <path
         inkscape:connector-curvature="0"
         id="path1522"
         d="m 24.394531,336 c -0.288588,0 -0.529297,0.24071 -0.529297,0.5293 v 0.52929 c 0,0.28859 0.240709,0.5293 0.529297,0.5293 h 1.587891 c 0.288588,0 0.529297,-0.24071 0.529297,-0.5293 v -0.52929 c 0,-0.28859 -0.240709,-0.5293 -0.529297,-0.5293 z"
         style="color:#000000;font-style:normal;font-variant:normal;font-weight:normal;font-stretch:normal;font-size:medium;line-height:normal;font-family:sans-serif;font-variant-ligatures:normal;font-variant-position:normal;font-variant-caps:normal;font-variant-numeric:normal;font-variant-alternates:normal;font-feature-settings:normal;text-indent:0;text-align:start;text-decoration:none;text-decoration-line:none;text-decoration-style:solid;text-decoration-color:#000000;letter-spacing:normal;word-spacing:normal;text-transform:none;writing-mode:lr-tb;direction:ltr;text-orientation:mixed;dominant-baseline:auto;baseline-shift:baseline;text-anchor:start;white-space:normal;shape-padding:0;clip-rule:nonzero;display:inline;overflow:visible;visibility:visible;opacity:1;isolation:auto;mix-blend-mode:normal;color-interpolation:sRGB;color-interpolation-filters:linearRGB;solid-color:#000000;solid-opacity:1;vector-effect:none;fill:#e92567;fill-opacity:1;fill-rule:nonzero;stroke:none;stroke-width:0.429537;stroke-linecap:round;stroke-linejoin:round;stroke-miterlimit:1.5;stroke-dasharray:none;stroke-dashoffset:0;stroke-opacity:1;paint-order:markers fill stroke;color-rendering:auto;image-rendering:auto;shape-rendering:auto;text-rendering:auto;enable-background:accumulate" />
      <path
         inkscape:connector-curvature="0"
         id="path1538"
         d="m 24.394065,336 c -0.288588,0 -0.529166,0.24058 -0.529166,0.52917 h 1.588016 c 0.288588,0 0.529167,0.24057 0.529167,0.52916 v 0.52917 c 0.288588,0 0.529167,-0.24058 0.529167,-0.52917 v -0.52916 C 26.511249,336.24058 26.27067,336 25.982082,336 Z"
         style="color:#000000;font-style:normal;font-variant:normal;font-weight:normal;font-stretch:normal;font-size:medium;line-height:normal;font-family:sans-serif;font-variant-ligatures:normal;font-variant-position:normal;font-variant-caps:normal;font-variant-numeric:normal;font-variant-alternates:normal;font-feature-settings:normal;text-indent:0;text-align:start;text-decoration:none;text-decoration-line:none;text-decoration-style:solid;text-decoration-color:#000000;letter-spacing:normal;word-spacing:normal;text-transform:none;writing-mode:lr-tb;direction:ltr;text-orientation:mixed;dominant-baseline:auto;baseline-shift:baseline;text-anchor:start;white-space:normal;shape-padding:0;clip-rule:nonzero;display:inline;overflow:visible;visibility:visible;opacity:1;isolation:auto;mix-blend-mode:normal;color-interpolation:sRGB;color-interpolation-filters:linearRGB;solid-color:#000000;solid-opacity:1;vector-effect:none;fill:#a10852;fill-opacity:1;fill-rule:nonzero;stroke:none;stroke-width:0.429537;stroke-linecap:round;stroke-linejoin:round;stroke-miterlimit:1.5;stroke-dasharray:none;stroke-dashoffset:0;stroke-opacity:1;paint-order:markers fill stroke;color-rendering:auto;image-rendering:auto;shape-rendering:auto;text-rendering:auto;enable-background:accumulate" />
      <path
         style="color:#000000;font-style:normal;font-variant:normal;font-weight:normal;font-stretch:normal;font-size:medium;line-height:normal;font-family:sans-serif;font-variant-ligatures:normal;font-variant-position:normal;font-variant-caps:normal;font-variant-numeric:normal;font-variant-alternates:normal;font-feature-settings:normal;text-indent:0;text-align:start;text-decoration:none;text-decoration-line:none;text-decoration-style:solid;text-decoration-color:#000000;letter-spacing:normal;word-spacing:normal;text-transform:none;writing-mode:lr-tb;direction:ltr;text-orientation:mixed;dominant-baseline:auto;baseline-shift:baseline;text-anchor:start;white-space:normal;shape-padding:0;clip-rule:nonzero;display:inline;overflow:visible;visibility:visible;opacity:1;isolation:auto;mix-blend-mode:normal;color-interpolation:sRGB;color-interpolation-filters:linearRGB;solid-color:#000000;solid-opacity:1;vector-effect:none;fill:#a10852;fill-opacity:1;fill-rule:nonzero;stroke:none;stroke-width:0.429537;stroke-linecap:round;stroke-linejoin:round;stroke-miterlimit:1.5;stroke-dasharray:none;stroke-dashoffset:0;stroke-opacity:1;paint-order:markers fill stroke;color-rendering:auto;image-rendering:auto;shape-rendering:auto;text-rendering:auto;enable-background:accumulate"
         d="m 30.744078,336 c -0.288588,0 -0.529166,0.24058 -0.529166,0.52917 h 1.588016 c 0.288588,0 0.529167,0.24057 0.529167,0.52916 v 0.52917 c 0.288588,0 0.529167,-0.24058 0.529167,-0.52917 v -0.52916 C 32.861262,336.24058 32.620683,336 32.332095,336 Z"
         id="path1564"
         inkscape:connector-curvature="0" />
      <path
         inkscape:connector-curvature="0"
         id="path1608"
         d="m 29.660239,328.59187 a 0.26460979,0.26460979 0 0 0 -0.122988,0.045 c 0.462221,0.0847 1.237533,0.34155 1.701188,1.14463 a 0.26460979,0.26460979 0 0 1 -0.07028,0.34365 c 0,0 -0.782775,0.58842 -1.562695,1.33583 -0.389959,0.37371 -0.777701,0.78693 -1.0604,1.17564 -0.279119,0.38379 -0.441341,0.74693 -0.445452,0.97255 v 0.01 a 0.26460979,0.26460979 0 0 0 0.527618,0 c 0,-0.22489 0.164299,-0.59366 0.447001,-0.98237 0.282699,-0.38871 0.670441,-0.80193 1.060399,-1.17564 0.779921,-0.74742 1.562696,-1.33583 1.562696,-1.33583 a 0.26460979,0.26460979 0 0 0 0.07028,-0.34365 c -0.688589,-1.19268 -2.082043,-1.18959 -2.082043,-1.18959 a 0.26460979,0.26460979 0 0 0 -0.02532,0 z"
         style="color:#000000;font-style:normal;font-variant:normal;font-weight:normal;font-stretch:normal;font-size:medium;line-height:normal;font-family:sans-serif;font-variant-ligatures:normal;font-variant-position:normal;font-variant-caps:normal;font-variant-numeric:normal;font-variant-alternates:normal;font-feature-settings:normal;text-indent:0;text-align:start;text-decoration:none;text-decoration-line:none;text-decoration-style:solid;text-decoration-color:#000000;letter-spacing:normal;word-spacing:normal;text-transform:none;writing-mode:lr-tb;direction:ltr;text-orientation:mixed;dominant-baseline:auto;baseline-shift:baseline;text-anchor:start;white-space:normal;shape-padding:0;clip-rule:nonzero;display:inline;overflow:visible;visibility:visible;opacity:1;isolation:auto;mix-blend-mode:normal;color-interpolation:sRGB;color-interpolation-filters:linearRGB;solid-color:#000000;solid-opacity:1;vector-effect:none;fill:#a10852;fill-opacity:1;fill-rule:nonzero;stroke:none;stroke-width:0.429537;stroke-linecap:round;stroke-linejoin:round;stroke-miterlimit:1.5;stroke-dasharray:none;stroke-dashoffset:0;stroke-opacity:1;paint-order:markers fill stroke;color-rendering:auto;image-rendering:auto;shape-rendering:auto;text-rendering:auto;enable-background:accumulate" />
      <path
         inkscape:connector-curvature="0"
         id="path1623"
         d="m 27.040968,328.59158 c 0,0 -0.157363,0.004 -0.381889,0.045 a 0.26460979,0.26460979 0 0 1 0.0925,0.10904 l 1.3224,2.91041 a 0.26460979,0.26460979 0 0 1 0.02377,0.10956 v 1.84329 c 5.2e-5,0.003 0.0016,0.007 0.0016,0.01 a 0.26460979,0.26460979 0 0 0 0.527616,0 v -1.85312 a 0.26460979,0.26460979 0 0 0 -0.02377,-0.10955 l -1.3224,-2.91042 a 0.26460979,0.26460979 0 0 0 -0.239779,-0.15399 z"
         style="color:#000000;font-style:normal;font-variant:normal;font-weight:normal;font-stretch:normal;font-size:medium;line-height:normal;font-family:sans-serif;font-variant-ligatures:normal;font-variant-position:normal;font-variant-caps:normal;font-variant-numeric:normal;font-variant-alternates:normal;font-feature-settings:normal;text-indent:0;text-align:start;text-decoration:none;text-decoration-line:none;text-decoration-style:solid;text-decoration-color:#000000;letter-spacing:normal;word-spacing:normal;text-transform:none;writing-mode:lr-tb;direction:ltr;text-orientation:mixed;dominant-baseline:auto;baseline-shift:baseline;text-anchor:start;white-space:normal;shape-padding:0;clip-rule:nonzero;display:inline;overflow:visible;visibility:visible;opacity:1;isolation:auto;mix-blend-mode:normal;color-interpolation:sRGB;color-interpolation-filters:linearRGB;solid-color:#000000;solid-opacity:1;vector-effect:none;fill:#a10852;fill-opacity:1;fill-rule:nonzero;stroke:none;stroke-width:0.429537;stroke-linecap:round;stroke-linejoin:round;stroke-miterlimit:1.5;stroke-dasharray:none;stroke-dashoffset:0;stroke-opacity:1;paint-order:markers fill stroke;color-rendering:auto;image-rendering:auto;shape-rendering:auto;text-rendering:auto;enable-background:accumulate" />
    </g>
  </g>
</svg>
